<svg version="1.1" id="Layer_1" xmlns="http://www.w3.org/2000/svg" xmlns:xlink="http://www.w3.org/1999/xlink" x="0px" y="0px" viewBox="0 0 232 98" style="enable-background:new 0 0 232 98;" xml:space="preserve">
<style type="text/css">
	.st0{clip-path:url(#SVGID_2_);}
	.st1{fill:#3B5193;}
	.st2{fill:#00AFE9;}
	.st3{fill:#E5E757;}
	.st4{fill:#80CBB0;}
	.st5{fill:#80CAB0;}
	.st6{fill:#7FCAAF;}
	.st7{fill:#7FC9AE;}
	.st8{fill:#7EC8AE;}
	.st9{fill:#7EC8AD;}
	.st10{fill:#7DC7AD;}
	.st11{fill:#7DC7AC;}
	.st12{fill:#7DC6AC;}
	.st13{fill:#7CC5AB;}
	.st14{fill:#7BC4AA;}
	.st15{fill:#7BC3A9;}
	.st16{fill:#7AC2A9;}
	.st17{fill:#79C2A8;}
	.st18{fill:#79C1A7;}
	.st19{fill:#78C0A7;}
	.st20{fill:#78BFA6;}
	.st21{fill:#77BEA5;}
	.st22{fill:#77BDA4;}
	.st23{fill:#76BCA4;}
	.st24{fill:#75BCA3;}
	.st25{fill:#75BBA2;}
	.st26{fill:#74BAA1;}
	.st27{fill:#73B9A0;}
	.st28{fill:#73B8A0;}
	.st29{fill:#72B79F;}
	.st30{fill:#71B69E;}
	.st31{fill:#71B59D;}
	.st32{fill:#70B49C;}
	.st33{fill:#6FB39B;}
	.st34{fill:#6FB29A;}
	.st35{fill:#6EB19A;}
	.st36{fill:#6DB099;}
	.st37{fill:#6CAF98;}
	.st38{fill:#6CAE97;}
	.st39{fill:#6BAC96;}
	.st40{fill:#6AAB95;}
	.st41{fill:#69AA94;}
	.st42{fill:#69A993;}
	.st43{fill:#68A892;}
	.st44{fill:#67A791;}
	.st45{fill:#66A690;}
	.st46{fill:#66A58F;}
	.st47{fill:#65A38E;}
	.st48{fill:#64A28D;}
	.st49{fill:#63A18C;}
	.st50{fill:#62A08B;}
	.st51{fill:#619F8A;}
	.st52{fill:#619D89;}
	.st53{fill:#609C88;}
	.st54{fill:#5F9B87;}
	.st55{fill:#5E9A86;}
	.st56{fill:#5D9985;}
	.st57{fill:#5C9784;}
	.st58{fill:#5C9683;}
	.st59{fill:#5B9582;}
	.st60{fill:#5A9481;}
	.st61{fill:#599280;}
	.st62{fill:#58917F;}
	.st63{fill:#57907D;}
	.st64{fill:#568E7C;}
	.st65{fill:#558D7B;}
	.st66{fill:#E5E758;}
	.st67{fill:#E4E658;}
	.st68{fill:#E3E557;}
	.st69{fill:#E2E457;}
	.st70{fill:#E1E457;}
	.st71{fill:#E1E356;}
	.st72{fill:#E0E256;}
	.st73{fill:#DFE256;}
	.st74{fill:#DFE156;}
	.st75{fill:#DEE055;}
	.st76{fill:#DDDF55;}
	.st77{fill:#DCDF55;}
	.st78{fill:#DCDE54;}
	.st79{fill:#DBDD54;}
	.st80{fill:#DADC54;}
	.st81{fill:#D9DB53;}
	.st82{fill:#D8DB53;}
	.st83{fill:#D7DA53;}
	.st84{fill:#D7D953;}
	.st85{fill:#D6D852;}
	.st86{fill:#D5D752;}
	.st87{fill:#D4D651;}
	.st88{fill:#D3D551;}
	.st89{fill:#D2D551;}
	.st90{fill:#D1D450;}
	.st91{fill:#D0D350;}
	.st92{fill:#CFD250;}
	.st93{fill:#CED14F;}
	.st94{fill:#CDD04F;}
	.st95{fill:#CCCF4F;}
	.st96{fill:#CBCE4E;}
	.st97{fill:#CACD4E;}
	.st98{fill:#C9CC4D;}
	.st99{fill:#C8CB4D;}
	.st100{fill:#C7CA4D;}
	.st101{fill:#C6C94C;}
	.st102{fill:#C5C84C;}
	.st103{fill:#C4C74C;}
	.st104{fill:#C3C64B;}
	.st105{fill:#C2C54B;}
	.st106{fill:#C1C44A;}
	.st107{fill:#C0C34A;}
	.st108{fill:#BFC24A;}
	.st109{fill:#BEC149;}
	.st110{fill:#BDC049;}
	.st111{fill:#BCBF48;}
	.st112{fill:#BBBE48;}
	.st113{fill:#BABD47;}
	.st114{fill:#B9BC47;}
	.st115{fill:#B7BA47;}
	.st116{fill:#B6B946;}
	.st117{fill:#B5B846;}
	.st118{fill:#B4B745;}
	.st119{fill:#B3B645;}
	.st120{fill:#B2B544;}
	.st121{fill:#B1B444;}
	.st122{fill:#AFB344;}
	.st123{fill:#AEB243;}
	.st124{fill:#ADB043;}
	.st125{fill:#ACAF42;}
	.st126{fill:#ABAE42;}
	.st127{fill:#AAAD41;}
	.st128{fill:#A8AC41;}
	.st129{fill:#A7AB40;}
	.st130{fill:#A6AA40;}
	.st131{fill:#A5A840;}
	.st132{fill:#A4A73F;}
	.st133{fill:#A2A63F;}
	.st134{fill:#A1A53E;}
	.st135{fill:#A0A43E;}
	.st136{fill:#00AEE8;}
	.st137{fill:#00AEE7;}
	.st138{fill:#00ADE7;}
	.st139{fill:#00ADE6;}
	.st140{fill:#00ACE5;}
	.st141{fill:#00ABE4;}
	.st142{fill:#00ABE3;}
	.st143{fill:#00AAE3;}
	.st144{fill:#00AAE2;}
	.st145{fill:#00A9E1;}
	.st146{fill:#00A9E0;}
	.st147{fill:#00A8E0;}
	.st148{fill:#00A7DF;}
	.st149{fill:#00A7DE;}
	.st150{fill:#00A6DD;}
	.st151{fill:#00A5DC;}
	.st152{fill:#00A4DB;}
	.st153{fill:#00A4DA;}
	.st154{fill:#00A3D9;}
	.st155{fill:#00A2D8;}
	.st156{fill:#00A2D7;}
	.st157{fill:#00A1D6;}
	.st158{fill:#00A0D5;}
	.st159{fill:#009FD5;}
	.st160{fill:#009FD4;}
	.st161{fill:#009ED3;}
	.st162{fill:#009DD2;}
	.st163{fill:#009CD1;}
	.st164{fill:#009CD0;}
	.st165{fill:#009BCF;}
	.st166{fill:#009ACE;}
	.st167{fill:#0099CD;}
	.st168{fill:#0099CB;}
	.st169{fill:#0098CA;}
	.st170{fill:#0097C9;}
	.st171{fill:#0096C8;}
	.st172{fill:#0095C7;}
	.st173{fill:#0094C6;}
	.st174{fill:#0094C5;}
	.st175{fill:#0093C4;}
	.st176{fill:#0092C3;}
	.st177{fill:#0091C2;}
	.st178{fill:#0090C0;}
	.st179{fill:#008FBF;}
	.st180{fill:#008EBE;}
	.st181{fill:#008EBD;}
	.st182{fill:#008DBC;}
	.st183{fill:#008CBB;}
	.st184{fill:#008BB9;}
	.st185{fill:#008AB8;}
	.st186{fill:#0089B7;}
	.st187{fill:#0088B6;}
	.st188{fill:#0087B4;}
	.st189{fill:#0086B3;}
	.st190{fill:#0085B2;}
	.st191{fill:#0084B1;}
	.st192{fill:#0083AF;}
	.st193{fill:#0082AE;}
	.st194{fill:#0081AD;}
	.st195{fill:#0080AC;}
	.st196{fill:#007FAA;}
	.st197{fill:#007EA9;}
	.st198{fill:#007DA8;}
	.st199{fill:#007CA6;}
	.st200{fill:#007BA5;}
	.st201{fill:#007AA4;}
	.st202{fill:#0079A2;}
	.st203{fill:#0078A1;}
	.st204{fill:#0077A0;}
	.st205{fill:#00769E;}
	.st206{fill:#00759D;}
</style>
<g>
	<defs>
		<rect id="SVGID_1_" width="232" height="98"></rect>
	</defs>
	<clipPath id="SVGID_2_">
		<use xlink:href="#SVGID_1_" style="overflow:visible;"></use>
	</clipPath>
	<g class="st0">
		<path class="st1" d="M122.5,88.8l-2.7,3.9c-0.4,0.6-0.7,0.8-1.2,0.8c-0.5,0-0.8-0.2-1.2-0.8l-2.7-3.9h0V97c0,0.6-0.4,0.9-1,0.9
			c-0.6,0-1-0.4-1-0.9V86.7c0-0.7,0.5-1.2,1.2-1.2h0.2c0.7,0,1.2,0.4,1.5,1l3.1,4.5l3.1-4.6c0.4-0.6,0.7-1,1.4-1h0.2
			c0.7,0,1.2,0.5,1.2,1.2V97c0,0.6-0.4,0.9-1,0.9c-0.6,0-1-0.4-1-0.9V88.8z"></path>
		<path class="st1" d="M130.1,94.8l-1,2.3c-0.2,0.5-0.5,0.8-1,0.8c-0.6,0-1-0.4-1-0.9c0-0.3,0.1-0.5,0.2-0.7l3.9-9.4
			c0.4-1,1-1.4,1.8-1.4h0.2c0.9,0,1.4,0.4,1.8,1.4l3.9,9.4c0.1,0.3,0.2,0.5,0.2,0.6c0,0.6-0.5,1-1.1,1c-0.5,0-0.8-0.3-1-0.8l-1-2.3
			H130.1z M135.1,93l-2.1-5.4h0l-2.2,5.4H135.1z"></path>
		<path class="st1" d="M147.8,93.3l2.9,2.9c0.3,0.2,0.4,0.5,0.4,0.7c0,0.5-0.5,1-1,1c-0.4,0-0.6-0.2-0.8-0.4l-3.8-4h-2.1v3.4
			c0,0.6-0.4,0.9-1,0.9c-0.6,0-1-0.4-1-0.9V86.4c0-0.6,0.4-0.9,0.9-0.9h3.8c3.4,0,4.8,1.9,4.8,3.8C150.9,91,150,92.8,147.8,93.3z
			 M145.9,91.7c2,0,2.7-1,2.7-2.1c0-1.2-0.7-2.1-2.7-2.1h-2.2c-0.3,0-0.4,0.1-0.4,0.4v3.8L145.9,91.7L145.9,91.7z"></path>
		<path class="st1" d="M154.9,85.5c0.6,0,1,0.4,1,0.9v5.5l6.4-5.9c0.3-0.3,0.6-0.5,0.9-0.5c0.6,0,1,0.6,1,1.1c0,0.4-0.2,0.6-0.5,0.8
			l-3.8,3.5l4.1,5.4c0.6,0.7,0,1.7-0.9,1.7c-0.4,0-0.7-0.3-1-0.6l-3.8-5.1l-2.4,2.2v2.6c0,0.6-0.4,0.9-1,0.9s-1-0.4-1-0.9V86.5
			C153.9,85.8,154.4,85.5,154.9,85.5z"></path>
		<path class="st1" d="M169.4,95.9h5.7c0.6,0,1,0.4,1,1c0,0.6-0.4,1-1,1H168c-0.6,0-1-0.4-1-1V86.6c0-0.6,0.4-1,1-1h7
			c0.6,0,1,0.4,1,1c0,0.6-0.4,0.9-1,0.9h-5.6c-0.3,0-0.4,0.1-0.4,0.4v2.8h4.2c0.6,0,1,0.4,1,0.9c0,0.6-0.4,0.9-1,0.9H169v2.9
			C169,95.8,169.1,95.9,169.4,95.9z"></path>
		<path class="st1" d="M178.2,87.5c-0.6,0-1-0.4-1-0.9c0-0.6,0.4-1,1-1h9.4c0.6,0,1,0.4,1,1c0,0.6-0.4,0.9-1,0.9H184V97
			c0,0.6-0.4,0.9-1,0.9s-1-0.4-1-0.9v-9.5H178.2z"></path>
		<path class="st1" d="M191.7,85.5c0.6,0,1,0.4,1,0.9V97c0,0.6-0.4,0.9-1,0.9s-1-0.4-1-0.9V86.4C190.6,85.8,191.1,85.5,191.7,85.5z"></path>
		<path class="st1" d="M205.6,97.9L205.6,97.9c-0.7,0-1.1-0.3-1.6-0.9l-5.9-8.3v8.3c0,0.6-0.4,0.9-1,0.9s-1-0.4-1-0.9V86.8
			c0-0.8,0.5-1.2,1.1-1.2h0.1c0.6,0,1,0.2,1.6,1l5.9,8.1v-8.2c0-0.6,0.4-0.9,1-0.9c0.6,0,1,0.4,1,0.9v10.4
			C206.8,97.5,206.3,97.9,205.6,97.9z"></path>
		<path class="st1" d="M219.9,86.6c0.4,0.3,0.6,0.5,0.6,0.9c0,0.5-0.3,1-0.9,1c-0.3,0-0.6-0.1-0.8-0.3c-0.6-0.4-1.4-0.8-2.7-0.8
			c-2.2,0-4.2,1.6-4.2,4.3c0,2.7,2,4.4,4.4,4.4c1.4,0,2.8-0.5,3.6-1.3v-1.9h-3.1c-0.5,0-0.9-0.4-0.9-0.9s0.4-0.9,0.9-0.9h3.9
			c0.8,0,1.2,0.5,1.2,1.2V95c0,0.6-0.4,1-0.8,1.4c-1.3,0.9-2.8,1.6-4.8,1.6c-3.6,0-6.5-2.6-6.5-6.3c0-3.7,2.8-6.3,6.5-6.3
			C217.8,85.4,219.3,86.1,219.9,86.6z"></path>
		<path class="st1" d="M96.6,51.6c0-16.8,10.8-26.9,26-26.9c5.4,0,10.1,1.2,13.8,3.3c2.8,1.6,6.2-0.3,6.2-3.5V4.6
			c0-3,2.4-4.6,5.1-4.6c2.5,0,4.9,1.6,4.9,4.6v46.6C152.5,66.1,141.7,78,124.5,78C108.6,78,96.6,68.1,96.6,51.6z M124.6,33
			c-9.7,0-17.6,6.7-17.6,18.3c0,11.6,7.7,18.1,17.4,18.1c10.3,0,18-7.4,18-18.1C142.5,40.6,134.9,33,124.6,33z"></path>
		<path class="st1" d="M186.1,24.7c8.1,0,15.6,2.9,19.5,6.1c1.1,1.1,1.6,2.3,1.6,3.4c0,2.9-3.1,5.3-6.7,3.5
			c-2.9-2.1-6.3-4.4-13.7-4.4c-9.3,0-17.1,6.8-17.1,18.3c0,11.6,7.7,17.8,17.1,17.8c5.2,0,8.9-0.7,13.7-4.3c3.4-1.9,6.7,0.6,6.7,3.5
			c0,1.1-0.5,2.3-1.6,3.3c-5.5,5.1-13.2,6.1-19.5,6.1c-15.6,0-26.8-10.2-26.8-26.5C159.3,35.5,170.5,24.7,186.1,24.7z"></path>
		<path class="st1" d="M214.4,8.4c0-3.6,2.7-6.1,6.2-6.1c3.4,0,6.1,2.4,6.1,6.1c0,3.7-2.7,5.9-6.1,5.9
			C217.1,14.3,214.4,12.2,214.4,8.4z M215.4,64.7V30.6c0-3.3,1.9-4.8,5.1-4.8c3.1,0,4.9,1.6,4.9,4.8v32.1c0,3.7,1.1,5.1,3.5,5.2
			c2.1,0.4,3.1,2.7,3,4.7c-0.3,2.2-1.7,4.3-5.7,4.3C219.6,76.8,215.4,72.7,215.4,64.7z"></path>
		<path class="st2" d="M42.3,63.2c-0.8,0.7-1.5,1.4-2.3,2c-0.5,0.4-1,0.8-1.5,1.2c-0.3,0.3-0.6,0.5-1,0.7c-3.6,2.7-7.4,5.1-11.5,7
			l-2.1,1C12,62.5,3.7,46.5,1,28.6c-0.6-3.5-1-7.9-1-13.4c0-2.5,1.4-4.9,3.7-6.1c1.9-1,3.9-1.9,5.9-2.7c1.1-0.5,2.1-0.9,3.2-1.3
			c1.1-0.4,2.1-0.8,3.2-1.2c1.1-0.4,2.1-0.7,3.2-1c1.1-0.3,2.1-0.6,3.2-0.8L22.1,5c-0.5,3.4-0.8,6.8-0.8,10.2c0,1,0.1,2,0.1,3.1
			c0.1,0.5,0.1,1.1,0.1,1.7c0.1,0.5,0.1,1,0.2,1.5c0.1,1.1,0.2,2.1,0.4,3.1C24.1,39.5,31.3,53,42.3,63.2z"></path>
		<path class="st3" d="M84.4,21.7c-0.1,1.2-0.2,2.4-0.4,3.5c-0.1,1.1-0.3,2.3-0.5,3.4c-0.2,1.1-0.4,2.2-0.6,3.3
			c-0.2,1.1-0.4,2.2-0.7,3.2L80,33.6c-3.6-2.6-7.5-4.8-11.6-6.6c-0.5-0.3-1-0.5-1.5-0.7c-0.5-0.2-0.9-0.4-1.4-0.5
			c-1-0.4-1.9-0.8-2.9-1.1c-6.5-2.1-13.3-3.2-20.3-3.2c-7,0-13.8,1.1-20.3,3.2c-0.2-1-0.3-2.1-0.4-3.1c-0.1-0.5-0.1-1-0.2-1.5
			c-0.1-0.6-0.1-1.2-0.1-1.7c-0.1-1.2-0.1-2.2-0.1-3.1c0-3.4,0.3-6.8,0.8-10.2l0.5-2.7c6.3-1.5,12.9-2.3,19.7-2.3
			c9.1,0,17.9,1.4,26.2,4.1c4.2,1.4,8.4,3.1,12.4,5.1c2.3,1.2,3.7,3.5,3.7,6.1C84.5,17.8,84.4,20.6,84.4,21.7z"></path>
		<path class="st4" d="M82.2,35.2c-4.1,17.4-13.5,32.9-26.4,44.4c-3.1,2.8-6.4,5.4-9.9,7.7c-2.2,1.5-5.2,1.5-7.4,0
			c-1.6-1.1-3.2-2.2-4.7-3.4c-0.9-0.7-1.8-1.4-2.6-2.1c-0.9-0.7-1.7-1.4-2.5-2.1c-0.8-0.7-1.6-1.5-2.4-2.2c-0.8-0.8-1.6-1.6-2.3-2.3
			l2.1-1c4-1.9,7.9-4.3,11.5-7c0.4-0.2,0.7-0.5,1-0.7c0.5-0.4,1-0.8,1.5-1.2c0.8-0.7,1.6-1.3,2.3-2c10.9-10.1,18.1-23.7,20.3-38.4
			c1,0.3,2,0.7,2.9,1.1c0.5,0.2,0.9,0.4,1.4,0.5c0.5,0.2,1.1,0.4,1.5,0.7c4.1,1.8,8,4.1,11.6,6.6L82.2,35.2z"></path>
		<path class="st4" d="M57.5,41.8c-0.8,1.8-1.3,2.9-1.3,2.9l19,9.7c0,0,0.8-1.4,1.8-3.7L57.5,41.8z"></path>
		<path class="st4" d="M77.1,50.4l-19.5-8.9c-0.1,0.1-0.1,0.2-0.1,0.3L77,50.6C77,50.6,77.1,50.5,77.1,50.4z"></path>
		<path class="st4" d="M77.2,50.1l-19.5-8.9c-0.1,0.1-0.1,0.2-0.1,0.3l19.5,8.9C77.1,50.3,77.2,50.2,77.2,50.1z"></path>
		<path class="st5" d="M77.3,49.9L57.8,41c-0.1,0.1-0.1,0.2-0.1,0.3l19.5,8.9C77.3,50,77.3,50,77.3,49.9z"></path>
		<path class="st6" d="M77.4,49.6l-19.5-8.9c-0.1,0.1-0.1,0.2-0.1,0.3l19.5,8.9C77.4,49.8,77.4,49.7,77.4,49.6z"></path>
		<path class="st6" d="M77.6,49.4l-19.5-8.9C58,40.6,58,40.6,58,40.7l19.4,8.9C77.5,49.5,77.5,49.4,77.6,49.4z"></path>
		<path class="st7" d="M77.7,49.1l-19.5-8.9c-0.1,0.1-0.1,0.2-0.1,0.3l19.5,8.9C77.6,49.3,77.6,49.2,77.7,49.1z"></path>
		<path class="st8" d="M77.8,48.9L58.3,40c-0.1,0.1-0.1,0.2-0.1,0.3l19.5,8.9C77.7,49,77.7,48.9,77.8,48.9z"></path>
		<path class="st9" d="M77.9,48.6l-19.5-8.9c-0.1,0.1-0.1,0.2-0.1,0.3l19.5,9C77.8,48.8,77.8,48.7,77.9,48.6z"></path>
		<path class="st10" d="M78,48.3l-19.5-8.9c-0.1,0.1-0.1,0.2-0.1,0.3l19.5,8.9C77.9,48.5,77.9,48.4,78,48.3z"></path>
		<path class="st11" d="M78.1,48.1l-19.5-8.9c-0.1,0.1-0.1,0.2-0.1,0.3L78,48.3C78,48.3,78,48.2,78.1,48.1z"></path>
		<path class="st12" d="M78.2,47.8l-19.5-8.9c-0.1,0.1-0.1,0.2-0.1,0.3l19.5,8.9C78.1,48,78.2,47.9,78.2,47.8z"></path>
		<path class="st13" d="M78.3,47.6l-19.5-8.9c-0.1,0.1-0.1,0.2-0.1,0.3l19.5,8.9C78.2,47.7,78.3,47.7,78.3,47.6z"></path>
		<path class="st13" d="M78.4,47.3l-19.5-8.9c-0.1,0.1-0.1,0.2-0.1,0.3l19.5,8.9C78.3,47.5,78.4,47.4,78.4,47.3z"></path>
		<path class="st14" d="M78.5,47.1l-19.5-8.9c-0.1,0.1-0.1,0.2-0.1,0.3l19.5,8.9C78.4,47.2,78.5,47.1,78.5,47.1z"></path>
		<path class="st15" d="M78.6,46.7L59,37.8C59,37.9,59,38,58.9,38.1L78.5,47C78.5,46.9,78.6,46.8,78.6,46.7z"></path>
		<path class="st16" d="M78.7,46.5l-19.5-8.9c-0.1,0.1-0.1,0.2-0.1,0.3l19.5,8.9C78.6,46.7,78.7,46.6,78.7,46.5z"></path>
		<path class="st17" d="M78.8,46.2l-19.5-8.9c-0.1,0.1-0.1,0.2-0.1,0.3l19.5,8.9C78.7,46.4,78.8,46.3,78.8,46.2z"></path>
		<path class="st18" d="M78.9,46l-19.5-8.9c-0.1,0.1-0.1,0.2-0.1,0.3l19.5,8.9C78.8,46.1,78.9,46.1,78.9,46z"></path>
		<path class="st19" d="M79,45.7l-19.6-9c-0.1,0.1-0.1,0.2-0.1,0.3l19.5,8.9C78.9,45.9,79,45.8,79,45.7z"></path>
		<path class="st20" d="M79.1,45.4l-19.6-9c-0.1,0.1-0.1,0.2-0.1,0.3l19.6,9C79.1,45.6,79.1,45.5,79.1,45.4z"></path>
		<path class="st21" d="M79.2,45.2l-19.6-8.9c-0.1,0.1-0.1,0.2-0.1,0.3l19.6,9C79.2,45.4,79.2,45.3,79.2,45.2z"></path>
		<path class="st22" d="M79.3,44.9l-19.6-9c-0.1,0.1-0.1,0.2-0.1,0.3l19.6,9C79.3,45.1,79.3,45,79.3,44.9z"></path>
		<path class="st23" d="M79.4,44.7l-19.6-9c-0.1,0.1-0.1,0.2-0.1,0.3l19.6,9C79.4,44.8,79.4,44.8,79.4,44.7z"></path>
		<path class="st24" d="M79.5,44.4l-19.6-9c-0.1,0.1-0.1,0.2-0.1,0.3l19.6,9C79.5,44.6,79.5,44.5,79.5,44.4z"></path>
		<path class="st25" d="M79.6,44.1l-19.6-9c-0.1,0.1-0.1,0.2-0.1,0.3l19.6,9C79.6,44.3,79.6,44.2,79.6,44.1z"></path>
		<path class="st26" d="M79.7,43.9l-19.6-9c-0.1,0.1-0.1,0.2-0.1,0.3l19.6,9C79.7,44.1,79.7,44,79.7,43.9z"></path>
		<path class="st27" d="M79.8,43.6l-19.6-9c-0.1,0.1-0.1,0.2-0.1,0.3l19.6,9C79.7,43.8,79.8,43.7,79.8,43.6z"></path>
		<path class="st28" d="M79.9,43.4l-19.6-9c-0.1,0.1-0.1,0.2-0.1,0.3l19.7,9C79.8,43.5,79.9,43.4,79.9,43.4z"></path>
		<path class="st29" d="M80,43l-19.6-9c-0.1,0.1-0.1,0.2-0.1,0.3l19.6,9C79.9,43.3,80,43.2,80,43z"></path>
		<path class="st30" d="M80.1,42.8l-19.6-9c-0.1,0.1-0.1,0.2-0.1,0.3L80,43C80,43,80,42.9,80.1,42.8z"></path>
		<path class="st31" d="M80.2,42.5l-19.6-9c-0.1,0.1-0.1,0.2-0.1,0.3l19.6,9C80.1,42.7,80.1,42.6,80.2,42.5z"></path>
		<path class="st32" d="M80.3,42.2l-19.6-9c-0.1,0.1-0.1,0.2-0.1,0.3l19.6,9C80.2,42.4,80.2,42.3,80.3,42.2z"></path>
		<path class="st33" d="M80.3,42l-19.7-9c-0.1,0.1-0.1,0.2-0.1,0.3l19.6,9C80.3,42.2,80.3,42.1,80.3,42z"></path>
		<path class="st34" d="M80.4,41.7l-19.7-9c-0.1,0.1-0.1,0.2-0.1,0.3l19.7,9C80.4,41.9,80.4,41.8,80.4,41.7z"></path>
		<path class="st35" d="M80.5,41.5l-19.7-9c-0.1,0.1-0.1,0.2-0.1,0.3l19.7,9C80.5,41.6,80.5,41.5,80.5,41.5z"></path>
		<path class="st36" d="M80.6,41.2l-19.7-9c-0.1,0.1-0.1,0.2-0.1,0.3l19.7,9C80.5,41.4,80.6,41.3,80.6,41.2z"></path>
		<path class="st37" d="M80.7,40.9l-19.7-9c0,0.1-0.1,0.2-0.1,0.3l19.7,9C80.6,41.1,80.7,41,80.7,40.9z"></path>
		<path class="st38" d="M80.8,40.7l-19.7-9c0,0.1-0.1,0.2-0.1,0.3l19.7,9C80.7,40.8,80.7,40.7,80.8,40.7z"></path>
		<path class="st39" d="M80.8,40.4l-19.7-9c0,0.1-0.1,0.2-0.1,0.3l19.7,9C80.8,40.6,80.8,40.5,80.8,40.4z"></path>
		<path class="st40" d="M80.9,40.1l-19.8-9c0,0.1-0.1,0.2-0.1,0.3l19.7,9C80.9,40.3,80.9,40.2,80.9,40.1z"></path>
		<path class="st41" d="M81,39.8l-19.8-9c0,0.1-0.1,0.2-0.1,0.3l19.8,9C81,40,81,39.9,81,39.8z"></path>
		<path class="st42" d="M81.1,39.6l-19.8-9c0,0.1-0.1,0.2-0.1,0.3l19.8,9C81,39.8,81.1,39.7,81.1,39.6z"></path>
		<path class="st43" d="M81.2,39.3l-19.8-9c0,0.1-0.1,0.2-0.1,0.3l19.7,9C81.1,39.5,81.1,39.4,81.2,39.3z"></path>
		<path class="st44" d="M81.2,39l-19.8-9c0,0.1-0.1,0.2-0.1,0.3l19.8,9C81.2,39.2,81.2,39.1,81.2,39z"></path>
		<path class="st45" d="M81.3,38.7l-19.8-9c0,0.1-0.1,0.2-0.1,0.3l19.8,9C81.3,38.9,81.3,38.8,81.3,38.7z"></path>
		<path class="st46" d="M81.4,38.5l-19.8-9.1c0,0.1-0.1,0.2-0.1,0.3l19.8,9.1C81.3,38.6,81.4,38.5,81.4,38.5z"></path>
		<path class="st47" d="M81.5,38.2l-19.8-9.1c0,0.1-0.1,0.2-0.1,0.3l19.8,9.1C81.4,38.4,81.4,38.3,81.5,38.2z"></path>
		<path class="st48" d="M81.5,37.9l-19.8-9.1c0,0.1-0.1,0.2-0.1,0.3l19.8,9.1C81.5,38.1,81.5,38,81.5,37.9z"></path>
		<path class="st49" d="M81.6,37.6l-19.8-9.1c0,0.1-0.1,0.2-0.1,0.3l19.8,9.1C81.6,37.8,81.6,37.7,81.6,37.6z"></path>
		<path class="st50" d="M81.7,37.4l-19.9-9.1c0,0.1-0.1,0.2-0.1,0.3l19.8,9.1C81.6,37.5,81.7,37.5,81.7,37.4z"></path>
		<path class="st51" d="M81.8,37.1L61.9,28c0,0.1-0.1,0.2-0.1,0.3l19.9,9.1C81.7,37.3,81.7,37.2,81.8,37.1z"></path>
		<path class="st52" d="M81.8,36.8L62,27.8c0,0.1-0.1,0.2-0.1,0.3l19.9,9.1C81.8,37,81.8,36.9,81.8,36.8z"></path>
		<path class="st53" d="M81.9,36.6l-19.9-9.1c0,0.1-0.1,0.2-0.1,0.3l19.8,9C81.9,36.7,81.9,36.6,81.9,36.6z"></path>
		<path class="st54" d="M82,36.3l-19.9-9.1c0,0.1-0.1,0.2-0.1,0.3l19.9,9.1C81.9,36.5,81.9,36.4,82,36.3z"></path>
		<path class="st55" d="M82,36l-19.9-9.1c0,0.1-0.1,0.2-0.1,0.3L82,36.3C82,36.2,82,36.1,82,36z"></path>
		<path class="st56" d="M82.1,35.7l-19.9-9.1c0,0.1-0.1,0.2-0.1,0.3L82.1,36C82.1,35.9,82.1,35.8,82.1,35.7z"></path>
		<path class="st57" d="M82.2,35.5l-19.9-9.1c0,0.1-0.1,0.2-0.1,0.3l19.9,9.1C82.1,35.6,82.1,35.5,82.2,35.5z"></path>
		<path class="st58" d="M82.2,35.2c-0.1-0.1-0.2-0.1-0.2-0.2l-19.8-9c0,0.1-0.1,0.2-0.1,0.3l19.9,9.1C82.2,35.4,82.2,35.3,82.2,35.2
			z"></path>
		<path class="st59" d="M81,34.2l-18.6-8.5c0,0.1-0.1,0.2-0.1,0.3l19.7,9C81.7,34.8,81.3,34.5,81,34.2z"></path>
		<path class="st60" d="M79.8,33.4l-17.4-7.9c0,0.1-0.1,0.2-0.1,0.3l18.6,8.5C80.6,34,80.2,33.7,79.8,33.4z"></path>
		<path class="st61" d="M78.4,32.5l-15.9-7.3c0,0.1-0.1,0.2-0.1,0.3l17.3,8C79.3,33.1,78.8,32.8,78.4,32.5z"></path>
		<path class="st62" d="M76.7,31.4l-14.2-6.5c0,0.1-0.1,0.2-0.1,0.3l15.9,7.3C77.8,32.1,77.3,31.8,76.7,31.4z"></path>
		<path class="st63" d="M74.6,30.1l-11.4-5.2c-0.4-0.2-0.6-0.2-0.6-0.2c0,0.1,0,0.2-0.1,0.2l14.2,6.5C76,30.9,75.3,30.5,74.6,30.1z"></path>
		<path class="st64" d="M70.5,28l-3.4-1.6c-1.8-0.8-3.2-1.2-3.9-1.5l11.4,5.2C73.1,29.3,71.8,28.6,70.5,28z"></path>
		<path class="st65" d="M67.1,26.4l3.4,1.6C69.3,27.3,68.1,26.8,67.1,26.4z"></path>
		<path class="st66" d="M46.4,0.2l0.4,9.5V0.4V0.2C46.7,0.2,46.6,0.2,46.4,0.2z"></path>
		<path class="st67" d="M46,0.2l0.8,18.9V9.7l-0.4-9.5C46.3,0.2,46.1,0.2,46,0.2z"></path>
		<path class="st67" d="M45.6,0.1l0.9,21.5c0.2,0,0.3,0,0.3,0V19L46,0.2C45.9,0.1,45.8,0.1,45.6,0.1z"></path>
		<path class="st68" d="M45.3,0.1l0.9,21.5c0.2,0,0.3,0,0.4,0.1L45.6,0.1C45.5,0.1,45.4,0.1,45.3,0.1z"></path>
		<path class="st68" d="M44.9,0.1l0.9,21.5c0.2,0,0.3,0,0.4,0L45.3,0.1C45.2,0.1,45,0.1,44.9,0.1z"></path>
		<path class="st69" d="M44.5,0.1l0.9,21.4c0.2,0,0.3,0,0.4,0L44.9,0.1C44.8,0.1,44.7,0.1,44.5,0.1z"></path>
		<path class="st70" d="M44.1,0.1L45,21.5c0.2,0,0.3,0,0.4,0L44.5,0.1C44.4,0.1,44.3,0.1,44.1,0.1z"></path>
		<path class="st71" d="M43.8,0.1l0.9,21.4c0.2,0,0.3,0,0.4,0L44.1,0.1C44,0.1,43.9,0.1,43.8,0.1z"></path>
		<path class="st72" d="M43.4,0.1l0.9,21.4c0.1,0,0.3,0,0.4,0L43.8,0.1C43.6,0.1,43.5,0.1,43.4,0.1z"></path>
		<path class="st73" d="M43,0.1l0.9,21.4c0.1,0,0.3,0,0.4,0L43.4,0.1C43.3,0.1,43.2,0.1,43,0.1z"></path>
		<path class="st74" d="M42.7,0.1l0.9,21.4c0.2,0,0.3,0,0.4,0L43,0.1C42.9,0.1,42.8,0.1,42.7,0.1z"></path>
		<path class="st75" d="M42.5,0.1c-0.1,0-0.2,0-0.2,0l0.9,21.4c0.1,0,0.3,0,0.4,0L42.7,0.1C42.6,0.1,42.6,0.1,42.5,0.1z"></path>
		<path class="st76" d="M41.9,0.1l0.9,21.4c0.1,0,0.3,0,0.4,0L42.3,0.1C42.2,0.1,42.1,0.1,41.9,0.1z"></path>
		<path class="st77" d="M41.6,0.1l0.9,21.4c0.1,0,0.3,0,0.4,0L41.9,0.1C41.8,0.1,41.7,0.1,41.6,0.1z"></path>
		<path class="st78" d="M41.2,0.1l0.9,21.4c0.1,0,0.3,0,0.4,0L41.6,0.1C41.5,0.1,41.3,0.1,41.2,0.1z"></path>
		<path class="st79" d="M40.9,0.1l0.9,21.4c0.1,0,0.3,0,0.4,0L41.2,0.1C41.1,0.1,41,0.1,40.9,0.1z"></path>
		<path class="st80" d="M40.5,0.1l0.9,21.4c0.1,0,0.3,0,0.4,0L40.9,0.1C40.7,0.1,40.6,0.1,40.5,0.1z"></path>
		<path class="st81" d="M40.1,0.1L41,21.5c0.1,0,0.3,0,0.4,0L40.5,0.1C40.4,0.1,40.3,0.1,40.1,0.1z"></path>
		<path class="st82" d="M39.8,0.1l0.9,21.4c0.1,0,0.3,0,0.4,0L40.1,0.1C40,0.1,39.9,0.1,39.8,0.1z"></path>
		<path class="st83" d="M39.4,0.1l0.9,21.4c0.1,0,0.3,0,0.4,0L39.8,0.1C39.7,0.1,39.5,0.1,39.4,0.1z"></path>
		<path class="st84" d="M39,0.1l0.9,21.4c0.1,0,0.3,0,0.4,0L39.4,0.1C39.2,0.1,39.1,0.1,39,0.1z"></path>
		<path class="st85" d="M38.6,0.2l0.9,21.4c0.1,0,0.3,0,0.4,0L39,0.1C38.9,0.2,38.8,0.2,38.6,0.2z"></path>
		<path class="st86" d="M38.3,0.2l0.9,21.4c0.1,0,0.3,0,0.4,0L38.6,0.2C38.5,0.2,38.4,0.2,38.3,0.2z"></path>
		<path class="st87" d="M37.9,0.2l0.9,21.4c0.1,0,0.3,0,0.4,0L38.3,0.2C38.1,0.2,38,0.2,37.9,0.2z"></path>
		<path class="st88" d="M37.5,0.2l0.9,21.4c0.1,0,0.3,0,0.4,0L37.9,0.2C37.8,0.2,37.7,0.2,37.5,0.2z"></path>
		<path class="st89" d="M37.2,0.2L38,21.6c0.1,0,0.3,0,0.4,0L37.5,0.2C37.4,0.2,37.3,0.2,37.2,0.2z"></path>
		<path class="st90" d="M36.8,0.3l0.9,21.4c0.1,0,0.3,0,0.4-0.1L37.2,0.2C37.1,0.2,36.9,0.2,36.8,0.3z"></path>
		<path class="st91" d="M36.5,0.3l0.9,21.4c0.1,0,0.3,0,0.4-0.1L36.8,0.3C36.7,0.3,36.6,0.3,36.5,0.3z"></path>
		<path class="st92" d="M36.1,0.3l0.9,21.4c0.1,0,0.3,0,0.4-0.1L36.5,0.3C36.3,0.3,36.2,0.3,36.1,0.3z"></path>
		<path class="st93" d="M35.7,0.3l0.9,21.4c0.1,0,0.3,0,0.4-0.1L36.1,0.3C36,0.3,35.9,0.3,35.7,0.3z"></path>
		<path class="st94" d="M35.4,0.4l0.8,21.4c0.1,0,0.3,0,0.4-0.1L35.7,0.3C35.6,0.3,35.5,0.3,35.4,0.4z"></path>
		<path class="st95" d="M35,0.4l0.8,21.4c0.1,0,0.3,0,0.4-0.1L35.4,0.4C35.2,0.4,35.1,0.4,35,0.4z"></path>
		<path class="st96" d="M34.6,0.4l0.9,21.4c0.1,0,0.3,0,0.4-0.1L35,0.4C34.9,0.4,34.8,0.4,34.6,0.4z"></path>
		<path class="st97" d="M34.2,0.5l0.9,21.4c0.1,0,0.3-0.1,0.4-0.1L34.6,0.4C34.5,0.4,34.4,0.4,34.2,0.5z"></path>
		<path class="st98" d="M33.9,0.5l0.9,21.4c0.1,0,0.3-0.1,0.4-0.1L34.2,0.5C34.1,0.5,34,0.5,33.9,0.5z"></path>
		<path class="st99" d="M33.5,0.5l0.8,21.4c0.1,0,0.3-0.1,0.4-0.1L33.9,0.5C33.7,0.5,33.6,0.5,33.5,0.5z"></path>
		<path class="st100" d="M33.1,0.6L34,22c0.1,0,0.3-0.1,0.4-0.1L33.5,0.5C33.4,0.5,33.3,0.5,33.1,0.6z"></path>
		<path class="st101" d="M32.8,0.6L33.6,22c0.1,0,0.3-0.1,0.4-0.1L33.1,0.6C33,0.6,32.9,0.6,32.8,0.6z"></path>
		<path class="st102" d="M32.4,0.6l0.9,21.5c0.1,0,0.3-0.1,0.4-0.1L32.8,0.6C32.7,0.6,32.5,0.6,32.4,0.6z"></path>
		<path class="st103" d="M32.1,0.7l0.9,21.5c0.1,0,0.3-0.1,0.4-0.1L32.4,0.6C32.3,0.6,32.2,0.7,32.1,0.7z"></path>
		<path class="st104" d="M31.7,0.7l0.9,21.5c0.1,0,0.3-0.1,0.4-0.1L32.1,0.7C31.9,0.7,31.8,0.7,31.7,0.7z"></path>
		<path class="st105" d="M31.3,0.8l0.9,21.5c0.1,0,0.3-0.1,0.4-0.1L31.7,0.7C31.6,0.7,31.5,0.7,31.3,0.8z"></path>
		<path class="st106" d="M31,0.8l0.9,21.5c0.1,0,0.3-0.1,0.4-0.1L31.3,0.8C31.2,0.8,31.1,0.8,31,0.8z"></path>
		<path class="st107" d="M30.6,0.9l0.9,21.5c0.1,0,0.3-0.1,0.4-0.1L31,0.8C30.9,0.8,30.7,0.8,30.6,0.9z"></path>
		<path class="st108" d="M30.3,0.9l0.9,21.5c0.1,0,0.3-0.1,0.4-0.1L30.6,0.9C30.5,0.9,30.4,0.9,30.3,0.9z"></path>
		<path class="st109" d="M29.9,1l0.9,21.6c0.1,0,0.3-0.1,0.4-0.1L30.3,0.9C30.1,0.9,30,0.9,29.9,1z"></path>
		<path class="st110" d="M29.5,1l0.9,21.6c0.1,0,0.3-0.1,0.4-0.1L29.9,1C29.8,1,29.6,1,29.5,1z"></path>
		<path class="st111" d="M29.1,1.1L30,22.6c0.1,0,0.3-0.1,0.4-0.1L29.5,1C29.4,1,29.2,1,29.1,1.1z"></path>
		<path class="st112" d="M28.8,1.1l0.9,21.6c0.1,0,0.3-0.1,0.4-0.1L29.1,1.1C29,1.1,28.9,1.1,28.8,1.1z"></path>
		<path class="st113" d="M28.4,1.2l0.9,21.6c0.1,0,0.3-0.1,0.4-0.1L28.8,1.1C28.6,1.1,28.5,1.2,28.4,1.2z"></path>
		<path class="st114" d="M28,1.2l0.9,21.6c0.1,0,0.3-0.1,0.4-0.1L28.4,1.2C28.3,1.2,28.2,1.2,28,1.2z"></path>
		<path class="st115" d="M27.7,1.3l0.9,21.6c0.1-0.1,0.3-0.1,0.4-0.1L28,1.2C27.9,1.3,27.8,1.3,27.7,1.3z"></path>
		<path class="st116" d="M27.3,1.4L28.2,23c0.1-0.1,0.3-0.1,0.4-0.1L27.7,1.3C27.6,1.3,27.4,1.3,27.3,1.4z"></path>
		<path class="st117" d="M27,1.4l0.8,21.7C27.9,23,28,23,28.1,23L27.3,1.4C27.2,1.4,27.1,1.4,27,1.4z"></path>
		<path class="st118" d="M26.6,1.5l0.9,21.7c0.1-0.1,0.3-0.1,0.4-0.1L27,1.4C26.8,1.4,26.7,1.5,26.6,1.5z"></path>
		<path class="st119" d="M26.2,1.6l0.9,21.7c0.1-0.1,0.3-0.1,0.4-0.1L26.6,1.5C26.5,1.5,26.3,1.5,26.2,1.6z"></path>
		<path class="st120" d="M25.9,1.6l0.9,21.7c0.1-0.1,0.3-0.1,0.4-0.1L26.2,1.6C26.1,1.6,26,1.6,25.9,1.6z"></path>
		<path class="st121" d="M25.5,1.7l0.9,21.7c0.1-0.1,0.3-0.1,0.4-0.1L25.9,1.6C25.7,1.7,25.6,1.7,25.5,1.7z"></path>
		<path class="st122" d="M25.1,1.8L26,23.6c0.1-0.1,0.3-0.1,0.4-0.1L25.5,1.7C25.4,1.7,25.3,1.7,25.1,1.8z"></path>
		<path class="st123" d="M24.8,1.9l0.9,21.8c0.1-0.1,0.3-0.1,0.4-0.1L25.1,1.8C25,1.8,24.9,1.8,24.8,1.9z"></path>
		<path class="st124" d="M24.4,1.9l0.9,21.8c0.1-0.1,0.3-0.1,0.4-0.1L24.8,1.9C24.6,1.9,24.5,1.9,24.4,1.9z"></path>
		<path class="st125" d="M24,2l0.9,21.8c0.1-0.1,0.3-0.1,0.4-0.1L24.4,1.9C24.3,2,24.1,2,24,2z"></path>
		<path class="st126" d="M23.7,2.1l0.9,21.8c0.1-0.1,0.3-0.1,0.4-0.1L24,2C23.9,2,23.8,2.1,23.7,2.1z"></path>
		<path class="st127" d="M23.3,2.2L24.1,24c0.1-0.1,0.3-0.1,0.4-0.1L23.7,2.1C23.5,2.1,23.4,2.1,23.3,2.2z"></path>
		<path class="st128" d="M22.9,2.3l0.9,21.9c0.1-0.1,0.3-0.1,0.4-0.1L23.3,2.2C23.2,2.2,23.1,2.2,22.9,2.3z"></path>
		<path class="st129" d="M22.6,2.3l0.9,21.9c0.1-0.1,0.3-0.1,0.4-0.1L22.9,2.3C22.8,2.3,22.7,2.3,22.6,2.3z"></path>
		<path class="st130" d="M22.6,2.3c-0.1,0.5-0.2,1-0.3,1.5l0.8,20.5c0.1-0.1,0.3-0.1,0.4-0.1L22.6,2.3z"></path>
		<path class="st131" d="M22,5.6l0.8,18.9c0.1-0.1,0.3-0.1,0.4-0.1L22.3,3.8C22.2,4.4,22.1,5,22,5.6z"></path>
		<path class="st132" d="M21.7,7.7l0.7,16.9c0.1-0.1,0.3-0.1,0.4-0.1L22,5.6C21.9,6.3,21.8,7,21.7,7.7z"></path>
		<path class="st133" d="M21.4,10.5l0.6,14c0,0.2,0.1,0.3,0.1,0.3c0.1-0.1,0.2-0.1,0.4-0.1L21.7,7.7C21.6,8.6,21.5,9.6,21.4,10.5z"></path>
		<path class="st134" d="M21.3,16.3l0.1,2.5c0.2,2.9,0.5,5,0.6,5.6l-0.6-14C21.3,12.6,21.3,14.5,21.3,16.3z"></path>
		<path class="st135" d="M21.4,18.8l-0.1-2.5C21.3,17.2,21.4,18,21.4,18.8z"></path>
		<path class="st2" d="M13.2,56.6l-2.1,1.3c0,0,0.1,0.1,0.2,0.3L13.2,56.6z"></path>
		<path class="st2" d="M11.5,58.3l3.8-3l-2.1,1.3l-1.9,1.5C11.3,58.1,11.4,58.2,11.5,58.3z"></path>
		<path class="st2" d="M11.6,58.6l5.8-4.6l-2.1,1.3l-3.8,3C11.5,58.4,11.5,58.5,11.6,58.6z"></path>
		<path class="st136" d="M11.8,58.9l7.7-6.1l-2.1,1.3l-5.8,4.6C11.7,58.7,11.7,58.8,11.8,58.9z"></path>
		<path class="st136" d="M11.9,59.2l9.6-7.5l-2.1,1.3L11.8,59C11.8,59,11.9,59.1,11.9,59.2z"></path>
		<path class="st137" d="M12.1,59.4l11.5-9.1l-2.1,1.3l-9.6,7.5C12,59.3,12,59.3,12.1,59.4z"></path>
		<path class="st138" d="M12.2,59.7l13.4-10.5l-2.1,1.3l-11.5,9.1C12.1,59.5,12.2,59.6,12.2,59.7z"></path>
		<path class="st139" d="M12.4,60l15.4-12.1l-2.1,1.3L12.2,59.7C12.3,59.8,12.3,59.9,12.4,60z"></path>
		<path class="st139" d="M12.5,60.2l17-13.4c0-0.1-0.1-0.1-0.1-0.1l-1.7,1.1L12.4,60C12.4,60,12.5,60.1,12.5,60.2z"></path>
		<path class="st140" d="M12.7,60.5l17-13.3c-0.1-0.2-0.2-0.2-0.2-0.3l-17,13.4C12.6,60.3,12.6,60.4,12.7,60.5z"></path>
		<path class="st140" d="M12.9,60.7l16.9-13.3c-0.1-0.1-0.1-0.2-0.2-0.3l-17,13.3C12.8,60.6,12.8,60.6,12.9,60.7z"></path>
		<path class="st141" d="M13,61L30,47.7c-0.1-0.1-0.1-0.2-0.2-0.3L12.9,60.7C12.9,60.8,13,60.9,13,61z"></path>
		<path class="st142" d="M13.2,61.2l16.9-13.3c-0.1-0.1-0.1-0.2-0.2-0.3L13,61C13.1,61.1,13.1,61.2,13.2,61.2z"></path>
		<path class="st143" d="M13.3,61.5l17-13.4c-0.1-0.1-0.1-0.2-0.2-0.3L13.2,61.2C13.2,61.3,13.3,61.4,13.3,61.5z"></path>
		<path class="st144" d="M13.5,61.8l16.9-13.3c-0.1-0.1-0.1-0.2-0.2-0.3L13.4,61.5C13.4,61.6,13.5,61.7,13.5,61.8z"></path>
		<path class="st145" d="M13.7,62l16.9-13.3c-0.1-0.1-0.1-0.2-0.2-0.3L13.5,61.8C13.6,61.8,13.6,61.9,13.7,62z"></path>
		<path class="st146" d="M13.8,62.3L30.8,49c-0.1-0.1-0.1-0.2-0.2-0.3L13.7,62C13.7,62.1,13.8,62.2,13.8,62.3z"></path>
		<path class="st147" d="M14,62.5L31,49.2c-0.1-0.1-0.1-0.2-0.2-0.3l-17,13.3C13.9,62.4,14,62.4,14,62.5z"></path>
		<path class="st148" d="M14.2,62.8l16.9-13.3c-0.1-0.1-0.1-0.2-0.2-0.3L14,62.5C14.1,62.6,14.1,62.7,14.2,62.8z"></path>
		<path class="st149" d="M14.3,63.1l16.9-13.3c-0.1-0.1-0.1-0.2-0.2-0.3L14.2,62.8C14.2,62.9,14.3,63,14.3,63.1z"></path>
		<path class="st150" d="M14.5,63.3L31.5,50c-0.1-0.1-0.1-0.2-0.2-0.3L14.4,63.1C14.4,63.2,14.5,63.2,14.5,63.3z"></path>
		<path class="st150" d="M14.7,63.6l16.9-13.3c-0.1-0.1-0.1-0.2-0.2-0.3L14.5,63.3C14.6,63.4,14.6,63.5,14.7,63.6z"></path>
		<path class="st151" d="M14.9,63.8l16.9-13.3c-0.1-0.1-0.1-0.2-0.2-0.3L14.7,63.6C14.7,63.7,14.8,63.7,14.9,63.8z"></path>
		<path class="st152" d="M15.1,64.1L32,50.7c-0.1-0.1-0.1-0.2-0.2-0.3L14.9,63.8C15,63.9,15,64,15.1,64.1z"></path>
		<path class="st153" d="M15.2,64.3L32.1,51c-0.1-0.1-0.1-0.2-0.2-0.3L15.1,64.1C15.1,64.2,15.2,64.2,15.2,64.3z"></path>
		<path class="st154" d="M15.4,64.6l16.9-13.3c-0.1-0.1-0.1-0.2-0.2-0.3l-17,13.3C15.3,64.4,15.4,64.5,15.4,64.6z"></path>
		<path class="st155" d="M15.6,64.8l16.9-13.3c-0.1-0.1-0.1-0.2-0.2-0.3L15.4,64.6C15.5,64.7,15.5,64.7,15.6,64.8z"></path>
		<path class="st156" d="M15.8,65.1l16.9-13.3c-0.1-0.1-0.1-0.2-0.2-0.3l-17,13.3C15.6,64.9,15.7,65,15.8,65.1z"></path>
		<path class="st157" d="M15.9,65.3L32.8,52c-0.1-0.1-0.1-0.2-0.2-0.3L15.8,65.1C15.8,65.2,15.9,65.2,15.9,65.3z"></path>
		<path class="st158" d="M16.1,65.6L33,52.3c-0.1-0.1-0.1-0.2-0.2-0.3l-17,13.3C16,65.4,16.1,65.5,16.1,65.6z"></path>
		<path class="st159" d="M16.3,65.8l16.9-13.3c-0.1-0.1-0.1-0.2-0.2-0.3L16.1,65.6C16.2,65.7,16.2,65.7,16.3,65.8z"></path>
		<path class="st160" d="M16.5,66.1l16.9-13.3c-0.1-0.1-0.1-0.2-0.2-0.3L16.3,65.8C16.3,65.9,16.4,66,16.5,66.1z"></path>
		<path class="st161" d="M16.6,66.3L33.5,53c-0.1-0.1-0.1-0.2-0.2-0.3L16.4,66.1C16.5,66.1,16.6,66.2,16.6,66.3z"></path>
		<path class="st162" d="M16.8,66.5l16.9-13.3c-0.1-0.1-0.1-0.2-0.2-0.3L16.6,66.3C16.7,66.4,16.8,66.5,16.8,66.5z"></path>
		<path class="st163" d="M17,66.8l16.9-13.3c-0.1-0.1-0.1-0.2-0.2-0.3L16.8,66.5C16.9,66.7,16.9,66.8,17,66.8z"></path>
		<path class="st164" d="M17.2,67.1L34,53.7c-0.1-0.1-0.1-0.2-0.2-0.3L17,66.8C17.1,66.9,17.1,67,17.2,67.1z"></path>
		<path class="st165" d="M17.4,67.3L34.2,54c-0.1-0.1-0.1-0.2-0.2-0.3L17.2,67.1C17.2,67.2,17.3,67.2,17.4,67.3z"></path>
		<path class="st166" d="M17.5,67.6l16.9-13.3c-0.1-0.1-0.1-0.2-0.2-0.3L17.3,67.3C17.4,67.4,17.5,67.5,17.5,67.6z"></path>
		<path class="st167" d="M17.7,67.8l16.9-13.3c-0.1-0.1-0.1-0.2-0.2-0.3L17.5,67.6C17.6,67.6,17.7,67.7,17.7,67.8z"></path>
		<path class="st168" d="M17.9,68l16.9-13.3c-0.1-0.1-0.1-0.2-0.2-0.3L17.7,67.8C17.8,67.9,17.9,68,17.9,68z"></path>
		<path class="st169" d="M18.1,68.3L35,55c-0.1-0.1-0.1-0.2-0.2-0.3L17.9,68C18,68.1,18,68.2,18.1,68.3z"></path>
		<path class="st170" d="M18.3,68.5l16.9-13.3c-0.1-0.1-0.1-0.2-0.2-0.3L18.1,68.3C18.2,68.4,18.2,68.4,18.3,68.5z"></path>
		<path class="st171" d="M18.5,68.8l16.9-13.3c-0.1-0.1-0.1-0.2-0.2-0.3L18.3,68.5C18.3,68.6,18.4,68.7,18.5,68.8z"></path>
		<path class="st172" d="M18.7,69l16.9-13.3c-0.1-0.1-0.1-0.2-0.2-0.3L18.5,68.7C18.5,68.8,18.6,68.9,18.7,69z"></path>
		<path class="st173" d="M18.8,69.2L35.7,56c-0.1-0.1-0.1-0.2-0.2-0.3L18.7,69C18.7,69.1,18.8,69.2,18.8,69.2z"></path>
		<path class="st174" d="M19,69.5l16.9-13.3c-0.1-0.1-0.2-0.2-0.2-0.3L18.8,69.2C18.9,69.3,19,69.4,19,69.5z"></path>
		<path class="st175" d="M19.2,69.7l16.9-13.3c-0.1-0.1-0.1-0.2-0.2-0.3L19,69.5C19.1,69.6,19.2,69.6,19.2,69.7z"></path>
		<path class="st176" d="M19.4,69.9l16.9-13.3c-0.1-0.1-0.2-0.2-0.2-0.3L19.2,69.7C19.3,69.8,19.3,69.9,19.4,69.9z"></path>
		<path class="st177" d="M19.6,70.2l16.9-13.3c-0.1-0.1-0.2-0.2-0.2-0.3L19.4,69.9C19.5,70,19.5,70.1,19.6,70.2z"></path>
		<path class="st178" d="M19.8,70.4l16.9-13.3c-0.1-0.1-0.2-0.2-0.2-0.3L19.6,70.2C19.7,70.3,19.8,70.3,19.8,70.4z"></path>
		<path class="st179" d="M20,70.7l16.9-13.3c-0.1-0.1-0.2-0.2-0.2-0.3L19.8,70.4C19.9,70.5,20,70.6,20,70.7z"></path>
		<path class="st180" d="M20.2,70.9l16.9-13.3c-0.1-0.1-0.2-0.2-0.2-0.3L20,70.7C20.1,70.8,20.2,70.9,20.2,70.9z"></path>
		<path class="st181" d="M20.4,71.2l16.9-13.3c-0.1-0.1-0.2-0.2-0.2-0.3L20.2,70.9C20.3,71,20.4,71.1,20.4,71.2z"></path>
		<path class="st182" d="M20.6,71.4l16.9-13.3c-0.1-0.1-0.2-0.2-0.2-0.3L20.4,71.1C20.5,71.2,20.6,71.3,20.6,71.4z"></path>
		<path class="st183" d="M20.8,71.6l16.9-13.3c-0.1-0.1-0.2-0.2-0.2-0.3L20.6,71.4C20.7,71.5,20.8,71.5,20.8,71.6z"></path>
		<path class="st184" d="M21,71.8l16.9-13.3c-0.1-0.1-0.2-0.2-0.2-0.3L20.8,71.6C20.9,71.7,21,71.8,21,71.8z"></path>
		<path class="st185" d="M21.2,72.1l16.9-13.3c-0.1-0.1-0.2-0.2-0.2-0.3L21,71.8C21.1,71.9,21.1,72,21.2,72.1z"></path>
		<path class="st186" d="M21.4,72.3l16.9-13.3c-0.1-0.1-0.2-0.2-0.2-0.3L21.2,72.1C21.3,72.2,21.3,72.2,21.4,72.3z"></path>
		<path class="st187" d="M21.6,72.5l16.9-13.3c-0.1-0.1-0.2-0.2-0.2-0.3L21.4,72.3C21.5,72.4,21.5,72.5,21.6,72.5z"></path>
		<path class="st188" d="M21.8,72.8l16.9-13.3c-0.1-0.1-0.2-0.2-0.2-0.2L21.6,72.6C21.7,72.6,21.7,72.7,21.8,72.8z"></path>
		<path class="st189" d="M22,73l16.9-13.3c-0.1-0.1-0.2-0.2-0.2-0.2L21.8,72.8C21.9,72.8,22,72.9,22,73z"></path>
		<path class="st190" d="M22.2,73.2L39.1,60c-0.1-0.1-0.2-0.2-0.2-0.2L22,73C22.1,73.1,22.2,73.1,22.2,73.2z"></path>
		<path class="st191" d="M22.4,73.4l16.9-13.3c-0.1-0.1-0.2-0.2-0.2-0.2L22.2,73.2C22.3,73.3,22.4,73.4,22.4,73.4z"></path>
		<path class="st192" d="M22.6,73.6l16.9-13.3c-0.1-0.1-0.2-0.2-0.2-0.2L22.4,73.4C22.5,73.5,22.6,73.6,22.6,73.6z"></path>
		<path class="st193" d="M22.8,73.9l16.9-13.3c-0.1-0.1-0.2-0.2-0.2-0.2L22.6,73.7C22.7,73.7,22.8,73.8,22.8,73.9z"></path>
		<path class="st194" d="M23.1,74.1l16.8-13.3c-0.1-0.1-0.2-0.2-0.2-0.2L22.8,73.9C22.9,73.9,23,74,23.1,74.1z"></path>
		<path class="st195" d="M23.3,74.3l16.9-13.3C40.1,61,40,60.9,40,60.9L23.1,74.1C23.1,74.2,23.2,74.2,23.3,74.3z"></path>
		<path class="st196" d="M23.5,74.6l16.9-13.3c-0.1-0.1-0.2-0.2-0.2-0.2L23.3,74.3C23.3,74.4,23.4,74.5,23.5,74.6z"></path>
		<path class="st197" d="M23.7,74.8l16.9-13.3c-0.1-0.1-0.2-0.2-0.2-0.2L23.5,74.6C23.5,74.7,23.6,74.7,23.7,74.8z"></path>
		<path class="st198" d="M23.9,75l16.9-13.3c-0.1-0.1-0.2-0.2-0.2-0.2L23.7,74.8C23.8,74.9,23.8,74.9,23.9,75z"></path>
		<path class="st199" d="M24,75.1c0.3-0.1,0.5-0.2,0.8-0.3l16.3-12.8c-0.1-0.1-0.2-0.2-0.2-0.2L24,75.1C23.9,75,23.9,75.1,24,75.1z"></path>
		<path class="st200" d="M25.8,74.3l15.4-12.2c-0.1-0.1-0.2-0.2-0.2-0.2L24.7,74.8C25.1,74.6,25.5,74.4,25.8,74.3z"></path>
		<path class="st201" d="M27,73.7l14.4-11.3c-0.1-0.1-0.2-0.2-0.2-0.2L25.8,74.3C26.2,74.1,26.6,73.9,27,73.7z"></path>
		<path class="st202" d="M28.4,73l13.3-10.4c-0.1-0.1-0.2-0.2-0.2-0.2L27.1,73.7C27.5,73.5,27.9,73.2,28.4,73z"></path>
		<path class="st203" d="M30,72.2l11.9-9.4c-0.1-0.1-0.2-0.2-0.2-0.2L28.4,73C28.9,72.7,29.5,72.4,30,72.2z"></path>
		<path class="st204" d="M32,71l10.2-8C42,63,42,62.9,41.9,62.8l-11.9,9.4C30.7,71.8,31.3,71.4,32,71z"></path>
		<path class="st205" d="M34.9,69.1l6.8-5.3c0.5-0.4,0.7-0.6,0.7-0.6c-0.1-0.1-0.1-0.1-0.2-0.2l-10.2,8C33,70.3,33.9,69.7,34.9,69.1
			z"></path>
		<path class="st206" d="M41.6,63.8l-6.8,5.4C38.1,66.9,40.5,64.8,41.6,63.8z"></path>
	</g>
</g>
</svg>